<svg width="1920" height="1080" viewBox="0 0 1920 1080" fill="none" xmlns="http://www.w3.org/2000/svg">
<g clip-path="url(#clip0_8_408)">
<path d="M1530.54 785.766C1486.62 767.628 1437.23 860.928 1412.73 824.863C1383.15 781.32 1509.69 785.517 1511.35 732.827C1513.12 676.398 1379.12 683.405 1404.61 635.775C1429.73 588.832 1490.69 699.818 1535.77 671.617C1586.7 639.76 1482.54 529.634 1541.35 517.698C1601.08 505.577 1538.41 643.437 1595.66 664.251C1650.78 684.292 1692.24 549.707 1729.28 595.267C1762.01 635.534 1620.34 661.652 1627.33 726.034C1634.17 788.994 1779.74 775.864 1749.9 831.736C1719.96 887.792 1645.18 747.797 1594.27 785.723C1554.18 815.583 1619.72 902.152 1570.21 908.547C1517.52 915.354 1579.64 806.042 1530.54 785.766Z" stroke="white" stroke-width="20"/>
<path d="M945.325 -91L746.602 93.44L945.325 -11.54L754.666 165.36L1069.17 -25.46L617 352.12L1174 4.12L746.602 341.68L1069.17 179.28L807.083 404.9L1050.16 265.12L893.484 518" stroke="white" stroke-width="20"/>
<path d="M1404.58 -95.6907C1404.58 -95.6907 1237.64 129.206 1394.14 266.126C1433.64 300.678 1479.76 308.875 1524.83 300.341M1524.83 300.341C1658.37 275.055 1782.66 102.904 1697.88 34.1434C1600.38 -44.9382 1450.2 149.281 1524.83 300.341ZM1524.83 300.341C1537 324.958 1555.13 348.43 1580.43 369.386C1648.31 425.602 1724.32 428.244 1788.21 405.705M1788.21 405.705C1894.26 368.289 1966.88 261.476 1913.38 215.183C1837.62 149.635 1730.82 301.301 1788.21 405.705ZM1788.21 405.705C1795.76 419.45 1806.16 432.376 1819.85 443.88C1937.55 542.758 2070.24 393.742 2070.24 393.742" stroke="white" stroke-width="20"/>
<path d="M221.674 858.896C161.261 872.393 99.6665 757.667 99.6665 757.667C99.6665 757.667 64.8878 825.148 27.0183 822.329C-9.10464 819.64 -35.6398 753.909 -35.6398 753.909C-35.6398 753.909 -201.689 870.727 -259.524 795.946C-341.394 690.089 -124.648 583.346 -124.648 583.346C-124.648 583.346 -266.785 534.322 -259.524 471.713C-248.067 372.915 -35.4585 451.257 -35.4585 451.257C-35.4585 451.257 -61.1384 324.355 -6.35813 296.217C57.4539 263.44 134.783 413.815 134.783 413.815C134.783 413.815 357.096 207.341 449.13 296.217C538.163 382.194 338.522 576.495 338.522 576.495C338.522 576.495 467.932 631.822 449.13 691.134C429.196 754.017 280.605 701.685 280.605 701.685C280.605 701.685 285.641 844.606 221.674 858.896Z" stroke="white" stroke-width="20"/>
<path d="M221.674 831.896C161.261 845.393 99.6665 730.667 99.6665 730.667C99.6665 730.667 64.8878 798.148 27.0183 795.329C-9.10464 792.64 -35.6398 726.909 -35.6398 726.909C-35.6398 726.909 -201.689 843.727 -259.524 768.946C-341.394 663.089 -124.648 556.346 -124.648 556.346C-124.648 556.346 -266.785 507.322 -259.524 444.713C-248.067 345.915 -35.4585 424.257 -35.4585 424.257C-35.4585 424.257 -61.1384 297.355 -6.35813 269.217C57.4539 236.44 134.783 386.815 134.783 386.815C134.783 386.815 357.096 180.341 449.13 269.217C538.163 355.194 338.522 549.495 338.522 549.495C338.522 549.495 467.932 604.822 449.13 664.134C429.196 727.017 280.605 674.685 280.605 674.685C280.605 674.685 285.641 817.606 221.674 831.896Z" stroke="#FF0000" stroke-width="20"/>
<path d="M1404.58 -134.691C1404.58 -134.691 1237.64 90.2055 1394.14 227.126C1433.64 261.678 1479.76 269.875 1524.83 261.341M1524.83 261.341C1658.37 236.055 1782.66 63.9039 1697.88 -4.85659C1600.38 -83.9382 1450.2 110.281 1524.83 261.341ZM1524.83 261.341C1537 285.958 1555.13 309.43 1580.43 330.386C1648.31 386.602 1724.32 389.244 1788.21 366.705M1788.21 366.705C1894.26 329.289 1966.88 222.476 1913.38 176.183C1837.62 110.635 1730.82 262.301 1788.21 366.705ZM1788.21 366.705C1795.76 380.45 1806.16 393.376 1819.85 404.88C1937.55 503.758 2070.24 354.742 2070.24 354.742" stroke="#001AFF" stroke-width="20"/>
<path d="M927.325 -134L728.602 50.44L927.325 -54.54L736.666 122.36L1051.17 -68.46L599 309.12L1156 -38.88L728.602 298.68L1051.17 136.28L789.083 361.9L1032.16 222.12L875.484 475" stroke="#FF8A00" stroke-width="20"/>
<path d="M1530.54 758.766C1486.62 740.628 1437.23 833.928 1412.73 797.863C1383.15 754.32 1509.69 758.517 1511.35 705.827C1513.12 649.398 1379.12 656.405 1404.61 608.775C1429.73 561.832 1490.69 672.818 1535.77 644.617C1586.7 612.76 1482.54 502.634 1541.35 490.698C1601.08 478.577 1538.41 616.437 1595.66 637.251C1650.78 657.292 1692.24 522.707 1729.28 568.267C1762.01 608.534 1620.34 634.652 1627.33 699.034C1634.17 761.994 1779.74 748.864 1749.9 804.736C1719.96 860.792 1645.18 720.797 1594.27 758.723C1554.18 788.583 1619.72 875.152 1570.21 881.547C1517.52 888.354 1579.64 779.042 1530.54 758.766Z" stroke="#9E00FF" stroke-width="20"/>
</g>
<defs>
<clipPath id="clip0_8_408">
<rect width="1920" height="1080" fill="white"/>
</clipPath>
</defs>
</svg>
